<?xml version="1.0" encoding="utf-8"?>
<!-- Generator: Adobe Illustrator 22.0.0, SVG Export Plug-In . SVG Version: 6.00 Build 0)  -->
<svg version="1.1" id="图层_1" xmlns="http://www.w3.org/2000/svg" xmlns:xlink="http://www.w3.org/1999/xlink" x="0px" y="0px"
	 viewBox="0 0 9.9 10" style="enable-background:new 0 0 9.9 10;" xml:space="preserve">
<style type="text/css">
	.st0{fill-rule:evenodd;clip-rule:evenodd;fill:url(#SVGID_1_);}
</style>
<linearGradient id="SVGID_1_" gradientUnits="userSpaceOnUse" x1="4.9843" y1="9.9689" x2="4.9843" y2="3.117306e-02">
	<stop  offset="0" style="stop-color:#7E63FF"/>
	<stop  offset="1" style="stop-color:#2677FE"/>
</linearGradient>
<path class="st0" d="M8.4,10H1.5C0.7,10,0,9.3,0,8.4V1.6C0,0.7,0.7,0,1.5,0h6.9C9.3,0,10,0.7,10,1.6v6.9C10,9.3,9.3,10,8.4,10z
	 M7.2,5.5C7.2,5.4,7.2,5.4,7.2,5.5c-0.1,0-0.1,0-0.2,0C6.8,5.6,6.5,5.6,6.2,5.6c-1,0-1.9-0.8-1.9-1.9c0-0.3,0.1-0.6,0.2-0.8
	c0-0.1,0-0.1,0-0.2c0,0-0.1-0.1-0.1-0.1c0,0,0,0,0,0C4.1,2.8,3.9,2.9,3.7,3C3.5,3.2,3.3,3.3,3.2,3.5C2.9,3.9,2.7,4.4,2.7,4.9
	c0,0.6,0.2,1.2,0.7,1.7C3.8,7,4.4,7.3,5,7.3l0,0h0c0.5,0,1-0.2,1.4-0.5C6.6,6.7,6.8,6.5,7,6.3c0.1-0.2,0.2-0.4,0.3-0.7
	C7.3,5.5,7.3,5.5,7.2,5.5z"/>
</svg>
