<?xml version="1.0" encoding="utf-8"?>
<!-- Generator: Adobe Illustrator 22.0.0, SVG Export Plug-In . SVG Version: 6.00 Build 0)  -->
<svg version="1.1" id="图层_1" xmlns="http://www.w3.org/2000/svg" xmlns:xlink="http://www.w3.org/1999/xlink" x="0px" y="0px"
	 viewBox="0 0 1738.8 173.3" style="enable-background:new 0 0 1738.8 173.3;" xml:space="preserve">
<style type="text/css">
	.st0{fill:#3498DB;}
	.st1{fill:#0F4264;}
</style>
<g>
	<g>
		<g>
			<path class="st0" d="M242.5,74.2h-23c-0.7,0-1.2,0.5-1.2,1.2v12.3c0,0.7,0.5,1.2,1.2,1.2h20.6c1.5,0,2.8,1.2,2.8,2.8v13.1
				c0,1.5-1.2,2.8-2.8,2.8h-20.6c-0.7,0-1.2,0.5-1.2,1.2V139c0,1.5-1.2,2.8-2.8,2.8h-16.9c-1.5,0-2.8-1.2-2.8-2.8V58.3
				c0-1.5,1.2-2.8,2.8-2.8h43.8c1.5,0,2.8,1.2,2.8,2.8v13.1C245.3,73,244.1,74.2,242.5,74.2z"/>
			<path class="st0" d="M339.1,105.2c0.1,4.5-0.4,8.9-1.3,13.3c-1.3,5.7-4.5,10.9-9.4,15.6c-7,6.6-16.4,9.9-28.1,9.9
				c-11.9,0-21.2-3.4-27.9-10.1c-3.6-3.7-6.1-8.3-7.3-13.3c-1-5-1.5-10.2-1.4-15.3v-47c0-1.5,1.2-2.8,2.8-2.8l0,0h16.9
				c1.5,0,2.8,1.2,2.8,2.8l0,0v43.9c0,3.8,0.1,6.6,0.2,8.4c0.4,5.9,3.1,9.9,8,12.3c2.1,1,4.4,1.5,6.7,1.4c5.5,0,9.6-1.9,12.4-5.7
				c2.1-2.8,3.1-8.3,3.1-16.4V58.3c0-1.5,1.2-2.8,2.8-2.8l0,0h16.8c1.5,0,2.8,1.2,2.8,2.8l0,0L339.1,105.2z"/>
			<path class="st0" d="M422.2,113.2c0,14.6-6.4,24.1-19.2,28.5c-4.6,1.6-9.5,2.4-14.4,2.3c-9.9,0-19.6-2.9-27.9-8.4
				c-1.2-0.8-1.7-2.4-1-3.7l6.8-12.8c0.7-1.4,2.4-1.9,3.7-1.2c0.1,0.1,0.3,0.2,0.4,0.3c5.9,4.7,11.6,7,17.3,7c2.6,0.1,5.2-0.6,7.4-2
				c2.3-1.4,3.6-3.9,3.5-6.5c0-2.6-1.3-4.7-3.9-6.4c-1.9-1.3-5.2-2.6-9.8-3.9c-5.6-1.6-9.1-2.8-10.5-3.4c-2.1-0.9-4.1-2-5.8-3.4
				c-4.5-3.8-6.8-9.5-6.8-17.2c0-8,2.4-14.6,7.1-19.9c5.6-6.2,13-9.3,22.3-9.3c8.6,0,17,2,24.8,5.7c1.4,0.7,2,2.3,1.4,3.7
				c0,0,0,0.1-0.1,0.1L411.2,75c-0.7,1.4-2.4,1.9-3.8,1.2c-0.1,0-0.2-0.1-0.2-0.1c-3.6-2.5-7.9-3.9-12.3-4c-2.3,0-4.5,0.7-6.5,1.9
				c-2,1.1-3.2,3.3-3.2,5.6c0,2.3,1.4,4.2,4.2,5.9c1.3,0.8,5.1,2.1,11.4,3.9c7.9,2.3,13.6,5.6,17,9.9
				C420.8,102.9,422.2,107.5,422.2,113.2z"/>
			<rect x="441.5" y="55.5" class="st0" width="22.5" height="86.3"/>
			<path class="st0" d="M578.9,98.9c0.1,11.4-4.1,22.4-11.7,30.8c-8.9,10.1-20.9,15.1-36.1,15.1c-15.2,0-27.2-5-36-15.1
				c-7.6-8.4-11.8-19.5-11.7-30.8c0.1-5.6,1.1-11.2,3.2-16.5c1.9-5.3,4.8-10.2,8.4-14.4c8.9-10.1,20.9-15.1,36.1-15.1
				s27.2,5,36.1,15.1C574.9,76.5,579.1,87.5,578.9,98.9z M555.7,98.9c0.1-5.8-2-11.4-5.8-15.8c-8.8-10.3-24.3-11.5-34.6-2.7
				c-5.4,4.6-8.6,11.4-8.6,18.5c0,5.8,2,11.3,5.8,15.6c4.6,5.6,11.4,8.7,18.6,8.6c13.4,0.1,24.4-10.6,24.5-24
				C555.7,99,555.7,99,555.7,98.9z"/>
			<path class="st0" d="M681.7,141.8h-18.3c-0.9,0-1.7-0.4-2.2-1.1l-38.3-49c-0.4-0.5-1.2-0.6-1.7-0.2c-0.3,0.2-0.5,0.6-0.5,0.9
				v49.3H601c-1.5,0-2.8-1.2-2.8-2.8V58.3c0-1.5,1.2-2.8,2.8-2.8h18.3c0.9,0,1.7,0.4,2.2,1.1l38.3,49c0.4,0.5,1.2,0.6,1.7,0.2
				c0.3-0.2,0.5-0.6,0.5-1V58.3c0-1.5,1.2-2.8,2.8-2.8h16.9c1.5,0,2.8,1.2,2.8,2.8V139C684.5,140.5,683.2,141.8,681.7,141.8z"/>
			<path class="st0" d="M79.6,56.3c-26.7,40.9-43.1,97.7-49.5,117c-3.6-36.4,15.4-86,29.3-115.3C53,58.3,18.9,60.7,0,80.2
				c0,0,10.2-31.3,69.1-40.8l0.2-0.4C115.4-28.3,150,11.9,150,11.9c-21-3.5-39.3,7-54.9,24.1c7.6-0.3,56.8-0.9,71,38
				C166.1,74,137.6,53.6,79.6,56.3z M112.9,103.2c-11.8,0-21.4,9.6-21.4,21.4s9.6,21.4,21.4,21.4s21.4-9.6,21.4-21.4l0,0
				C134.3,112.7,124.7,103.2,112.9,103.2z"/>
		</g>
	</g>
</g>
<g>
	<g>
		<g>
			<path class="st0" d="M916.3,95v-0.2c5-1.4,9.2-3.9,12.5-7.6s5-8,5-12.9c0-6.6-2.7-11.8-8-15.5s-12.9-5.6-22.7-5.6H871v90.3h33.7
				c10.1,0,18.1-2.4,23.9-7.3c5.8-4.8,8.7-11.4,8.7-19.6c0-5.9-1.9-10.7-5.8-14.6C927.7,98.1,922.6,95.8,916.3,95z M890.2,67.5h8.2
				c10.1,0,15.2,3.5,15.2,10.4c0,3.8-1.3,6.7-3.8,8.8c-2.5,2.1-6,3.1-10.4,3.1h-9.2V67.5z M913,125.7c-2.7,2.3-6.5,3.4-11.4,3.4
				h-11.4v-24.8h11.2c5,0,8.9,1,11.6,3.1c2.7,2.1,4.1,5.1,4.1,8.9C917.1,120.4,915.8,123.5,913,125.7z M950.9,143.5h18.8V48h-18.8
				V143.5z M1019.8,77.4c-10.7,0-19.3,3-25.6,9.1c-6.4,6.1-9.5,14.4-9.5,25c0,10.3,3.1,18.5,9.2,24.5c6.2,6,14.5,9,25,9
				c10.7,0,19.2-3.1,25.4-9.4c6.3-6.3,9.4-14.7,9.4-25.2c0-10.1-3.1-18.1-9.2-24C1038.4,80.4,1030.1,77.4,1019.8,77.4z
				 M1019.4,130.6c-10.5,0-15.7-6.4-15.7-19.3c0-6.2,1.4-11,4.1-14.3c2.7-3.4,6.6-5.1,11.5-5.1c10.1,0,15.2,6.3,15.2,18.9
				C1034.5,124,1029.5,130.6,1019.4,130.6z M1076.5,86.9c-6.5,6.3-9.8,15-9.8,25.9c0,9.5,3,17.3,9.1,23.3s14,9,23.8,9
				c8.3,0,14.7-1.3,19.2-4v-15.3c-4.8,3.2-9.7,4.8-14.7,4.8c-5.7,0-10.2-1.7-13.5-5.1s-5-8.1-5-14c0-6.1,1.7-10.9,5.2-14.4
				s8.1-5.2,13.8-5.2c5.1,0,9.8,1.6,14.1,4.7V80.5c-3.5-2-9-3-16.3-3C1091.7,77.4,1083,80.6,1076.5,86.9z M1191.8,79h-22.4
				l-20.1,29.8h-0.2V48h-18.8v95.4h18.8v-31.9h0.2l21.4,31.9h22.8l-25.6-34L1191.8,79z M1263.2,105.9h29.8V90.2h-29.8V68.9h32.1
				V53.2H1244v90.3h53.5v-15.7h-34.2v-21.9H1263.2z M1349.3,79l-9.9,18.5c-1.4,2.7-2.3,4.7-2.7,6h-0.2c-0.8-2.2-1.7-4.2-2.6-5.9
				l-9.6-18.5h-21.8l20.5,32.4l-21.8,32.1h21.6l9.8-18c1-1.9,1.9-3.7,2.6-5.6h0.2c0.5,1.4,1.4,3.3,2.7,5.8l9.6,17.8h21.7l-21.2-33
				l21.3-31.4h-20.2V79z M1416.4,77.4c-9,0-16,3.8-20.9,11.4h-0.2V79h-18.8v94.1h18.8v-37.4h0.2c4.1,6.2,10.1,9.3,18,9.3
				c8.7,0,15.7-3.2,21.1-9.7s8-15.1,8-25.9c0-9.9-2.3-17.7-6.9-23.4C1431,80.3,1424.6,77.4,1416.4,77.4z M1419.4,125.1
				c-2.6,3.7-6.3,5.5-11,5.5c-4,0-7.2-1.5-9.7-4.4s-3.7-6.7-3.7-11.2v-5.6c0-5.1,1.3-9.3,4.1-12.6c2.7-3.3,6.2-4.9,10.5-4.9
				c9.2,0,13.8,5.9,13.8,17.7C1423.3,116.3,1422,121.5,1419.4,125.1z M1458.2,143.5h18.8V48h-18.8V143.5z M1527.1,77.4
				c-10.7,0-19.3,3-25.6,9.1c-6.4,6.1-9.5,14.4-9.5,25c0,10.3,3.1,18.5,9.2,24.5c6.2,6,14.5,9,25,9c10.7,0,19.2-3.1,25.4-9.4
				c6.3-6.3,9.4-14.7,9.4-25.2c0-10.1-3.1-18.1-9.2-24C1545.7,80.4,1537.5,77.4,1527.1,77.4z M1526.8,130.6
				c-10.5,0-15.7-6.4-15.7-19.3c0-6.2,1.4-11,4.1-14.3c2.7-3.4,6.6-5.1,11.5-5.1c10.1,0,15.2,6.3,15.2,18.9
				C1541.9,124,1536.8,130.6,1526.8,130.6z M1596.9,91.1h-0.2V79h-18.8v64.5h18.8v-31c0-5.7,1.3-10.2,3.8-13.5s5.9-4.9,10.2-4.9
				c3.3,0,6,0.7,8.3,2V78.7c-1.2-0.5-2.9-0.8-5.1-0.8C1605.7,77.9,1600,82.3,1596.9,91.1z M1658.2,77.4c-9.2,0-16.8,3.2-22.8,9.6
				c-6.1,6.4-9.1,14.8-9.1,25.1s2.8,18.4,8.5,24.2s13.7,8.7,23.9,8.7c9.5,0,17.2-1.7,23.1-5v-13.8c-5.4,3.5-11.7,5.2-18.8,5.2
				c-11.4,0-17.4-5-18.1-15h42.4v-8c0-9.7-2.6-17.3-7.7-22.8C1674.5,80.2,1667.3,77.4,1658.2,77.4z M1644.9,104.8
				c0.6-4.4,2.2-7.8,4.7-10.5c2.5-2.6,5.3-4,8.6-4c7.8,0,11.7,4.8,11.7,14.5H1644.9z M1733.3,77.9c-8.2,0-13.9,4.4-17,13.2h-0.2V79
				h-18.8v64.5h18.8v-31c0-5.7,1.3-10.2,3.8-13.5s5.9-4.9,10.2-4.9c3.3,0,6,0.7,8.3,2V78.7C1737.2,78.1,1735.5,77.9,1733.3,77.9z"/>
		</g>
	</g>
</g>
<path class="st1" d="M770.6,0h6v174.6h-6V0z"/>
</svg>
