<?xml version="1.0" encoding="utf-8"?>
<!-- Generator: Adobe Illustrator 22.0.0, SVG Export Plug-In . SVG Version: 6.00 Build 0)  -->
<svg version="1.1" id="图层_1" xmlns="http://www.w3.org/2000/svg" xmlns:xlink="http://www.w3.org/1999/xlink" x="0px" y="0px"
	 viewBox="0 0 500 500" style="enable-background:new 0 0 500 500;" xml:space="preserve">
<style type="text/css">
	.st0{fill:#3BAD4B;}
</style>
<g>
	<g>
		<path class="st0" d="M229.8,479.9v-42.2c-26.9-1.2-59.6-5.2-98-13.2v-0.2c-9.7-1-17.2-9.2-17.2-19.2c0-10.7,8.7-19.2,19.2-19.2
			c2,0,3.7,0.2,5.5,0.8c34.9,6.7,64.6,10.7,90.5,12v-136c-53.1-24.7-106-53.4-106-109.5c-1.2-67.1,40.6-89.3,106-92.3V18.1
			c1-9.6,9.1-17.3,19.2-17.4C111.7,1.2,0.7,112.6,0.7,250c0,137.4,111.1,248.8,248.3,249.3C238.4,499.2,229.8,490.5,229.8,479.9z
			 M163,153.3c0,29.2,30.4,48.1,67.1,65.9V99.9C188.7,102.9,162.5,116.2,163,153.3z M334.8,352.9c-1-31.4-30.9-53.4-65.8-71.1v116.2
			C319.6,394.1,335.5,374.6,334.8,352.9z M250,0.7c-0.2,0-0.4,0-0.6,0c10.1,0.1,18.3,7.8,19.3,17.5v42.7c26.4,1.2,55.1,4.2,85.5,7
			c9.7,1.2,17.2,9.5,17.2,19.5c0,10.7-8.7,19.5-19.4,19.5h-1.5c-29.9-3-57.3-5.7-81.5-7v137.7c52.9,25.4,103.7,53.4,104.7,114.3
			c0.5,43.7-24.7,80.3-105,85.6v42.7c0,10.7-8.6,19.4-19.3,19.4c0.2,0,0.4,0,0.6,0c137.7,0,249.3-111.6,249.3-249.3
			C499.3,112.3,387.7,0.7,250,0.7z"/>
	</g>
</g>
</svg>
