<?xml version="1.0" encoding="utf-8"?>
<!-- Generator: Adobe Illustrator 22.0.0, SVG Export Plug-In . SVG Version: 6.00 Build 0)  -->
<svg version="1.1" id="图层_1" xmlns="http://www.w3.org/2000/svg" xmlns:xlink="http://www.w3.org/1999/xlink" x="0px" y="0px"
	 viewBox="0 0 500 500" style="enable-background:new 0 0 500 500;" xml:space="preserve">
<style type="text/css">
	.st0{fill:#9EA0A5;}
</style>
<path class="st0" d="M499,351.3l-54.6-124.9l-124.9,54.6l20,45.6l50.3-22.1c-0.4,0.9-0.8,1.9-1.1,2.9c-7.5,17.7-18.3,33.7-32,47.4
	c-13.7,13.7-29.6,24.4-47.4,32c-18.3,7.7-37.8,11.7-58,11.7c-32.4,0-63.3-10.2-89.2-29.6c-12.5-9.3-23.4-20.5-32.4-33.2
	c-5-7.1-9.4-14.5-13.1-22.3l-45.1,21.2c31.9,67.2,100.4,113.7,179.8,113.7c82.1,0,152.6-49.8,182.9-120.8l19.1,43.7L499,351.3z
	 M162.2,170.2l-49,23.1c0.4-0.8,0.7-1.7,1-2.5c7.6-17.6,18.3-33.4,32-47c13.7-13.6,29.6-24.2,47.3-31.7
	c18.3-7.7,37.7-11.6,57.8-11.6c18.2,0,36,3.2,52.8,9.6c16.2,6.2,31.2,15,44.5,26.5c16.2,14,29.2,31.2,38,50.3l45.1-21.2
	c-31.7-67.9-100.5-115-180.4-115c-82.6,0-153.4,50.4-183.5,122.1l-20.7-43.9L2,150.1l58.2,123.3l123.2-58.2L162.2,170.2z
	 M162.2,170.2"/>
</svg>
