<?xml version="1.0" encoding="utf-8"?>
<!-- Generator: Adobe Illustrator 22.0.0, SVG Export Plug-In . SVG Version: 6.00 Build 0)  -->
<svg version="1.1" id="图层_1" xmlns="http://www.w3.org/2000/svg" xmlns:xlink="http://www.w3.org/1999/xlink" x="0px" y="0px"
	 viewBox="0 0 500 500" style="enable-background:new 0 0 500 500;" xml:space="preserve">
<style type="text/css">
	.st0{fill-rule:evenodd;clip-rule:evenodd;fill:#999999;}
</style>
<g>
	<g>
		<path class="st0" d="M425,200h-1.8h-50.7h-245H127v-50h0.5c11.6-57.1,62-100,122.5-100s110.9,42.9,122.5,100h50.7
			C411.1,65.2,338.2,0,250,0S88.9,65.2,76.8,150H77v50h-0.2H75H25v300h50h350h50V200H425z M425,350v100H75V350V250h16.9H150h200
			h58.1H425V350z M225,400h50V300h-50V400z"/>
	</g>
</g>
</svg>
