<?xml version="1.0" encoding="utf-8"?>
<!-- Generator: Adobe Illustrator 22.0.0, SVG Export Plug-In . SVG Version: 6.00 Build 0)  -->
<svg version="1.1" id="图层_1" xmlns="http://www.w3.org/2000/svg" xmlns:xlink="http://www.w3.org/1999/xlink" x="0px" y="0px"
	 viewBox="0 0 9.9 10" style="enable-background:new 0 0 9.9 10;" xml:space="preserve">
<style type="text/css">
	.st0{fill-rule:evenodd;clip-rule:evenodd;fill:#344D5F;}
</style>
<path class="st0" d="M8.4,10H1.6C0.7,10,0,9.3,0,8.4V1.6C0,0.7,0.7,0,1.6,0h6.9C9.3,0,10,0.7,10,1.6v6.9C10,9.3,9.3,10,8.4,10z
	 M6.5,6.8l0.4,0.4c0.1,0.1,0.2,0.1,0.3,0c0.1-0.1,0.1-0.2,0-0.3L6.8,6.5c-0.1-0.1-0.2-0.1-0.3,0C6.4,6.6,6.4,6.7,6.5,6.8z M5,7.9
	C5,8,5.1,8.1,5.2,8.1c0.1,0,0.2-0.1,0.2-0.2V7.3c0-0.1-0.1-0.2-0.2-0.2C5.1,7.1,5,7.2,5,7.3V7.9z M3.2,7.2c0.1,0.1,0.2,0.1,0.3,0
	l0.4-0.4c0.1-0.1,0.1-0.2,0-0.3c-0.1-0.1-0.2-0.1-0.3,0L3.2,6.9C3.1,7,3.1,7.1,3.2,7.2z M2.5,5C2.4,5,2.3,5.1,2.3,5.2
	c0,0.1,0.1,0.2,0.2,0.2h0.6c0.1,0,0.2-0.1,0.2-0.2C3.3,5.1,3.2,5,3.1,5H2.5z M3.8,3.6L3.5,3.2c-0.1-0.1-0.2-0.1-0.3,0
	c-0.1,0.1-0.1,0.2,0,0.3l0.4,0.4c0.1,0.1,0.2,0.1,0.3,0C3.9,3.8,3.9,3.7,3.8,3.6z M5.4,2.5c0-0.1-0.1-0.2-0.2-0.2
	C5.1,2.3,5,2.4,5,2.5v0.6c0,0.1,0.1,0.2,0.2,0.2c0.1,0,0.2-0.1,0.2-0.2V2.5z M5.2,3.7c-0.9,0-1.5,0.7-1.5,1.5s0.7,1.5,1.5,1.5
	s1.5-0.7,1.5-1.5S6,3.7,5.2,3.7z M7.2,3.2C7.1,3.1,7,3.1,6.9,3.2L6.5,3.6c-0.1,0.1-0.1,0.2,0,0.3c0.1,0.1,0.2,0.1,0.3,0l0.4-0.4
	C7.3,3.4,7.3,3.3,7.2,3.2z M7.8,5H7.3C7.2,5,7.1,5.1,7.1,5.2c0,0.1,0.1,0.2,0.2,0.2h0.6C8,5.4,8,5.3,8,5.2C8,5.1,8,5,7.8,5z"/>
</svg>
